<svg width="42" height="48" viewBox="0 0 42 48" fill="none" xmlns="http://www.w3.org/2000/svg">
<path d="M3.51293 15.6516H3.38997C1.81374 15.6516 0.528564 16.9408 0.528564 18.513V30.9711C0.528564 32.5494 1.81374 33.8345 3.38997 33.8345H3.51502C5.09125 33.8345 6.37643 32.5452 6.37643 30.9711V18.5129C6.37434 16.9408 5.08716 15.6516 3.51293 15.6516Z" fill="#0F9D58"/>
<path d="M7.74561 35.7797C7.74561 37.2268 8.92825 38.4053 10.3753 38.4053H13.1855V45.1345C13.1855 46.7148 14.4748 48 16.0469 48H16.1699C17.7482 48 19.0354 46.7128 19.0354 45.1345V38.4053H22.9627V45.1345C22.9627 46.7148 24.256 48 25.8282 48H25.9491C27.5273 48 28.8125 46.7128 28.8125 45.1345V38.4053H31.6247C33.0697 38.4053 34.2525 37.2268 34.2525 35.7797V16.1086H7.74561V35.7797Z" fill="#0F9D58"/>
<path d="M27.6011 4.1796L29.8332 0.734092C29.9767 0.516776 29.9131 0.219641 29.6938 0.078153C29.4766 -0.0653305 29.1794 -0.00584662 29.0379 0.217551L26.7238 3.78202C24.9878 3.07078 23.0487 2.67112 21.001 2.67112C18.9513 2.67112 17.0163 3.07078 15.2762 3.78202L12.9662 0.217551C12.8248 -0.00584662 12.5255 -0.0653305 12.3062 0.078153C12.0869 0.219546 12.0233 0.516776 12.1668 0.734092L14.401 4.1796C10.3732 6.15349 7.65741 9.87371 7.65741 14.1412C7.65741 14.4035 7.67385 14.6618 7.69637 14.918H34.3076C34.3302 14.6618 34.3445 14.4035 34.3445 14.1412C34.3446 9.87371 31.6267 6.15349 27.6011 4.1796ZM14.8314 10.3492C14.1242 10.3492 13.5503 9.77935 13.5503 9.0702C13.5503 8.36105 14.1242 7.7932 14.8314 7.7932C15.5426 7.7932 16.1125 8.36096 16.1125 9.0702C16.1125 9.77945 15.5386 10.3492 14.8314 10.3492ZM27.1686 10.3492C26.4615 10.3492 25.8875 9.77935 25.8875 9.0702C25.8875 8.36105 26.4615 7.7932 27.1686 7.7932C27.8778 7.7932 28.4476 8.36096 28.4476 9.0702C28.4476 9.77935 27.8778 10.3492 27.1686 10.3492Z" fill="#0F9D58"/>
<path d="M38.608 15.6516H38.4891C36.9129 15.6516 35.6236 16.9408 35.6236 18.513V30.9711C35.6236 32.5494 36.9149 33.8345 38.4891 33.8345H38.61C40.1883 33.8345 41.4715 32.5452 41.4715 30.9711V18.5129C41.4715 16.9408 40.1842 15.6516 38.608 15.6516Z" fill="#0F9D58"/>
</svg>
