<?xml version="1.0" standalone="no" ?>
<!DOCTYPE svg PUBLIC "-//W3C//DTD SVG 20010904//EN" "http://www.w3.org/TR/2001/REC-SVG-20010904/DTD/svg10.dtd">
<svg version="1.0" xmlns="http://www.w3.org/2000/svg" width="1000.000000pt" height="869.000000pt" viewBox="0 0 1000.000000 869.000000" preserveAspectRatio="xMidYMid meet">
        <metadata>
Created by potrace 1.15, written by Peter Selinger 2001-2017
</metadata>
        <g transform="translate(0.000000,869.000000) scale(0.100000,-0.100000)" fill="#F57F17" stroke="none">
                <path d="M4645 8159 c-542 -47 -1063 -194 -1545 -435 -213 -107 -344 -184
-520 -307 -467 -324 -841 -709 -1153 -1183 -47 -71 -96 -150 -108 -175 -12
-24 -30 -55 -40 -69 -28 -41 -174 -339 -214 -435 -48 -116 -116 -307 -111
-312 2 -2 11 8 20 22 28 43 90 68 161 63 112 -7 179 -78 178 -190 -2 -128
-112 -209 -242 -178 -79 19 -129 85 -143 189 -7 58 -115 -398 -147 -624 -36
-246 -44 -402 -38 -715 5 -292 18 -432 61 -665 23 -128 73 -343 84 -360 3 -5
7 -16 7 -25 1 -8 14 -59 30 -112 24 -86 30 -96 45 -88 29 16 41 -8 16 -33 -12
-12 -13 -21 -4 -50 6 -20 16 -33 21 -30 6 3 7 1 3 -5 -15 -24 191 -491 209
-475 4 5 5 3 2 -3 -7 -12 64 -150 128 -249 19 -31 35 -57 35 -60 0 -14 203
-302 227 -322 8 -6 14 -14 13 -18 -2 -9 150 -190 256 -306 114 -124 300 -298
434 -408 104 -84 323 -244 392 -285 20 -12 64 -38 99 -59 l63 -39 30 34 c106
120 180 190 302 287 134 106 447 266 678 347 151 53 356 109 489 134 l119 23
-6 30 c-3 16 -6 73 -6 127 l0 98 -112 62 c-171 94 -329 211 -459 340 -174 173
-275 332 -335 525 -15 50 -28 91 -29 93 -1 1 -28 -7 -61 -19 -35 -12 -95 -23
-149 -26 -157 -9 -276 37 -391 151 -145 145 -227 350 -226 566 1 117 18 197
59 272 44 81 161 182 241 209 27 9 33 15 28 33 -3 11 -8 104 -12 206 -24 677
127 1345 395 1746 76 114 171 225 245 289 l57 48 32 -31 c18 -17 49 -38 71
-47 l38 -16 -33 -25 c-138 -101 -291 -300 -390 -507 -160 -336 -238 -717 -255
-1241 -7 -189 -6 -209 9 -203 8 3 32 9 51 13 34 6 36 5 36 -22 0 -16 5 -81 10
-144 5 -63 21 -292 35 -509 15 -244 30 -403 38 -419 6 -14 24 -34 39 -45 34
-26 26 -26 633 13 451 29 1453 94 1620 105 44 3 221 14 393 25 173 11 321 24
330 29 26 14 59 53 67 78 3 13 -3 168 -14 345 -49 765 -48 718 -25 718 14 0
16 9 10 63 -24 214 -102 559 -171 757 -237 678 -626 1070 -1183 1191 -135 29
-464 37 -607 15 -114 -17 -273 -61 -357 -99 l-58 -26 0 65 c0 36 -4 74 -10 84
-9 16 -1 22 71 49 180 69 369 100 601 101 559 1 973 -194 1312 -615 252 -314
438 -777 531 -1330 27 -160 55 -416 55 -509 0 -34 4 -66 8 -72 4 -6 32 -14 64
-18 123 -15 276 -121 336 -233 44 -83 62 -162 62 -269 0 -231 -87 -435 -251
-587 -60 -57 -93 -78 -151 -101 -95 -37 -215 -46 -307 -22 -35 9 -66 14 -68
12 -3 -2 -11 -37 -19 -78 -64 -310 -329 -659 -672 -883 -36 -24 -42 -32 -38
-54 3 -14 8 -83 11 -153 4 -70 10 -127 13 -126 15 4 123 -15 218 -37 232 -55
584 -209 799 -349 172 -112 310 -227 455 -378 l85 -89 67 45 c37 24 85 54 105
66 21 12 92 61 158 108 556 396 1040 964 1343 1575 103 209 187 412 176 429
-4 6 -3 8 3 5 25 -16 163 487 207 753 45 279 51 357 51 720 -1 302 -4 366 -24
515 -90 675 -303 1253 -666 1810 -356 546 -881 1043 -1435 1357 -167 95 -512
261 -564 273 -6 1 -24 8 -41 14 -69 29 -108 40 -118 34 -5 -3 -7 -2 -4 4 5 9
-58 30 -311 104 -173 51 -523 110 -766 129 -151 12 -537 11 -681 -1z m775
-784 c0 -64 0 -65 -27 -65 -16 0 -45 3 -65 6 -36 6 -38 9 -38 43 0 75 6 81 71
81 l59 0 0 -65z m500 25 c24 0 25 -2 22 -60 l-4 -60 -58 0 c-32 0 -61 4 -64 8
-3 5 -2 34 1 66 l6 58 36 -6 c20 -3 47 -6 61 -6z m-3146 -290 c20 -28 43 -53
51 -56 21 -8 79 30 106 71 13 19 28 34 32 32 5 -1 23 -38 39 -82 17 -44 32
-81 33 -83 2 -2 53 22 115 53 65 32 116 53 121 48 5 -5 -8 -37 -31 -76 -22
-36 -40 -71 -40 -78 0 -6 10 -27 21 -46 21 -34 22 -45 7 -136 -2 -14 15 -26
82 -53 113 -46 110 -45 110 -55 0 -4 -17 -13 -37 -18 -21 -6 -64 -17 -95 -26
-67 -18 -118 -63 -118 -104 0 -15 14 -49 31 -75 l30 -48 -63 6 c-57 6 -67 5
-92 -15 l-28 -22 7 -96 7 -96 -42 40 c-23 22 -57 64 -76 93 -52 77 -81 72
-134 -25 -13 -24 -28 -43 -34 -43 -6 0 -20 17 -31 38 -19 35 -24 37 -84 46
-61 8 -68 6 -117 -20 -29 -16 -56 -25 -60 -21 -5 4 -1 22 9 40 33 63 37 83 20
106 -14 21 -20 21 -113 15 -143 -10 -147 -6 -65 69 62 57 69 67 75 112 4 28
14 65 21 82 13 33 13 33 -41 88 l-54 55 62 0 c69 0 102 20 102 64 0 20 -52
148 -80 198 -19 33 10 28 101 -17 50 -26 101 -50 113 -55 35 -13 55 11 67 79
7 38 16 61 24 61 7 0 29 -23 49 -50z m4486 -730 c30 -16 28 -84 -3 -105 -26
-16 -168 -38 -191 -29 -39 15 -30 76 16 115 25 21 42 26 94 28 35 1 73 -3 84
-9z m370 -24 c41 -8 91 -21 111 -30 40 -17 105 -83 119 -122 14 -37 12 -157
-3 -178 -14 -20 -43 -13 -52 12 -14 47 -172 172 -196 156 -5 -3 -9 -1 -9 4 0
5 -26 16 -58 25 -75 21 -126 55 -130 88 -5 40 16 50 123 57 11 1 54 -5 95 -12z
m-716 -100 c63 -26 54 -82 -25 -149 -52 -45 -175 -110 -190 -101 -7 4 -9 24
-6 53 9 70 11 75 45 131 46 73 105 96 176 66z m1094 -326 c26 -28 55 -141 53
-202 -4 -113 -91 -197 -146 -141 -14 14 -16 30 -12 86 3 43 -1 86 -9 113 -16
54 -21 115 -10 133 21 33 97 40 124 11z m-1298 -29 c26 -49 -1 -144 -45 -161
-41 -15 -54 -12 -87 20 -27 27 -30 36 -25 71 8 61 40 89 98 89 38 0 51 -4 59
-19z m280 -61 c12 -7 16 -42 18 -182 4 -192 1 -214 -29 -223 -43 -14 -49 7
-49 162 0 141 0 144 -20 138 -12 -4 -27 -1 -35 5 -28 23 -16 48 38 79 59 35
57 34 77 21z m340 -19 c73 -50 100 -211 50 -300 -34 -60 -71 -86 -125 -86
-100 0 -162 114 -141 258 19 123 129 188 216 128z m315 19 c19 0 69 -50 88
-86 57 -111 6 -285 -91 -315 -34 -10 -45 -8 -86 9 -39 18 -50 29 -71 74 -58
123 -10 287 91 318 16 4 35 6 42 4 8 -2 20 -4 27 -4z m-997 -193 c33 -33 42
-115 18 -152 -22 -34 -77 -35 -111 -1 -28 28 -49 97 -39 129 18 60 84 72 132
24z m1333 -201 c10 -24 22 -71 25 -105 6 -53 3 -67 -20 -115 -15 -31 -39 -65
-53 -76 -31 -24 -82 -26 -124 -5 -16 9 -33 14 -37 11 -17 -10 -10 59 7 79 11
11 37 58 58 105 43 91 86 150 109 150 9 0 24 -20 35 -44z m-1261 -88 c21 -47
26 -128 10 -159 -16 -29 -56 -23 -98 15 -33 31 -37 40 -37 83 0 68 24 103 71
103 32 0 37 -4 54 -42z m229 -214 c32 -34 41 -51 41 -79 0 -32 -4 -38 -35 -51
-103 -43 -195 21 -166 116 26 89 87 94 160 14z m769 -16 c48 -52 54 -116 15
-153 -34 -31 -81 -41 -142 -29 -42 8 -46 12 -49 42 -3 28 5 40 61 97 36 36 71
65 79 65 8 0 24 -10 36 -22z m-508 -97 c25 -6 84 -10 131 -11 102 0 117 -10
100 -62 -35 -102 -209 -117 -336 -30 -52 36 -66 73 -39 103 20 22 41 22 144 0z
m-3260 -316 c333 -266 821 -515 1287 -657 79 -24 143 -45 143 -48 0 -6 -1743
-119 -1749 -114 -2 2 6 90 18 196 22 204 36 365 47 563 6 99 9 114 17 85 12
-49 12 -486 -1 -595 -6 -56 -7 -97 -1 -107 11 -21 52 -24 67 -5 16 20 34 298
30 480 -1 92 -1 167 0 167 2 0 47 -45 100 -101 107 -113 248 -229 379 -315 98
-64 281 -162 359 -193 47 -18 53 -18 73 -4 28 19 24 53 -9 70 -14 7 -73 34
-131 61 -105 49 -224 120 -329 196 -72 53 -237 195 -275 237 -52 57 -135 160
-135 166 0 6 -1 7 110 -82z m-1890 -517 c13 -34 32 -157 25 -168 -9 -14 -25
-12 -99 10 -45 14 -66 26 -66 37 0 17 106 143 121 143 5 0 14 -10 19 -22z
m3970 -317 c0 -33 -44 -69 -91 -75 -24 -3 -545 -38 -1157 -77 -845 -55 -1119
-69 -1137 -61 -26 12 -61 59 -52 69 4 3 311 25 684 49 373 24 908 59 1188 78
281 18 522 34 538 35 20 1 27 -4 27 -18z m-4176 -287 c28 -9 62 -19 76 -24 22
-6 25 -12 23 -55 -2 -65 -53 -164 -115 -226 -77 -76 -83 -77 -103 -21 -26 74
-31 200 -10 264 20 62 42 91 64 83 8 -3 38 -13 65 -21z m6874 -13 c101 -52
139 -160 91 -258 -39 -81 -122 -118 -224 -99 -40 8 -99 55 -121 97 -21 41 -18
132 6 179 43 84 165 124 248 81z m-6713 -824 c21 -12 53 -42 70 -65 26 -38 30
-53 30 -107 0 -55 -5 -70 -30 -106 -40 -56 -85 -79 -158 -79 -118 0 -191 71
-191 188 0 53 5 68 30 105 57 82 167 110 249 64z m5931 -55 c87 -99 100 -120
83 -136 -15 -15 -140 -46 -183 -46 -35 0 -39 12 -27 75 6 30 16 80 22 110 14
75 37 74 105 -3z m287 -782 c40 -110 30 -327 -20 -423 l-14 -28 -37 30 c-129
103 -202 237 -202 370 l0 57 108 26 c59 14 116 25 126 24 14 -1 25 -16 39 -56z
m-835 -456 c59 -30 87 -52 124 -98 56 -70 77 -125 85 -222 23 -292 -283 -501
-551 -376 -282 132 -300 530 -32 687 69 40 131 55 219 51 68 -2 88 -8 155 -42z" />
                <path d="M7215 5746 c-62 -62 -26 -245 47 -234 41 6 63 53 63 133 0 64 -3 77
-24 99 -30 32 -55 33 -86 2z" />
                <path d="M7565 5746 c-46 -46 -43 -168 6 -217 28 -28 59 -20 87 21 20 30 23
44 20 102 -3 54 -8 72 -28 93 -29 31 -54 32 -85 1z" />
                <path d="M8588 3514 c-78 -42 -78 -183 -1 -212 58 -21 66 -22 108 -3 71 31 95
103 55 168 -35 58 -105 78 -162 47z" />
                <path d="M1863 2688 c-18 -13 -40 -38 -49 -57 -40 -83 50 -184 141 -160 76 21
115 109 75 174 -40 65 -110 83 -167 43z" />
                <path d="M7145 1431 c-84 -22 -173 -96 -217 -181 -18 -36 -23 -61 -23 -125 0
-72 4 -88 34 -149 36 -70 73 -106 151 -147 61 -32 192 -33 260 -2 59 27 129
95 160 158 34 68 36 196 3 267 -27 59 -97 128 -160 158 -52 25 -156 35 -208
21z" />
                <path d="M1096 5259 c-39 -11 -84 -55 -91 -90 -15 -68 50 -149 120 -149 74 0
137 81 116 150 -19 65 -84 105 -145 89z" />
                <path d="M5495 2339 c-16 -5 -89 -20 -162 -34 -278 -52 -578 -68 -809 -43
-175 18 -159 24 -158 -53 3 -122 94 -287 199 -359 25 -17 50 -28 57 -24 6 4 8
3 5 -3 -9 -15 112 -58 206 -73 92 -15 255 -8 337 14 137 38 274 142 333 253
44 82 74 226 68 321 -1 14 -32 14 -76 1z" />
        </g>
</svg>