<svg width="48" height="48" viewBox="0 0 48 48" fill="none" xmlns="http://www.w3.org/2000/svg">
<path d="M21.1921 8.09517H21.1889C20.6818 8.09943 20.2724 8.51243 20.2717 9.02024C20.2706 9.5277 20.6786 9.9414 21.1864 9.9478H21.1896C21.6967 9.94318 22.1062 9.53054 22.1072 9.02273C22.108 8.51491 21.6999 8.10121 21.1921 8.09517Z" fill="#DB4437"/>
<path d="M1.45455 39.7525C1.45668 41.8224 3.13459 43.5 5.20455 43.5025H42.7045C44.7745 43.5 46.4524 41.8224 46.4545 39.7525V15.3214H1.45455V39.7525ZM28.5192 24.5515C28.1843 24.2667 28.1445 23.7646 28.4293 23.4297C28.7138 23.0955 29.2159 23.055 29.5508 23.3402L34.6974 27.723C34.875 27.8746 34.9773 28.0959 34.9773 28.3292C34.9773 28.5621 34.875 28.7837 34.6974 28.9347L29.5508 33.3175C29.2159 33.6026 28.7138 33.5621 28.4293 33.228C28.1445 32.8935 28.1843 32.3917 28.5192 32.1065L32.9545 28.3292L28.5192 24.5515ZM21.353 35.8352L24.5611 20.6044C24.6513 20.1744 25.0735 19.8992 25.5032 19.9897C25.9332 20.0803 26.2081 20.5025 26.1175 20.9322L22.9098 36.1634C22.8189 36.5934 22.3974 36.8683 21.9673 36.7777C21.5376 36.6872 21.2624 36.2653 21.353 35.8352ZM13.2116 27.723L18.3583 23.3402C18.6932 23.055 19.1953 23.0955 19.4798 23.4297C19.7646 23.7646 19.7248 24.2667 19.3899 24.5515L14.9545 28.3292L19.3906 32.1065C19.7248 32.3917 19.7649 32.8935 19.4801 33.228C19.1957 33.5621 18.6932 33.6026 18.3587 33.3175L13.212 28.9347C13.0344 28.7837 12.9322 28.5621 12.9322 28.3292C12.9322 28.0959 13.0344 27.8746 13.212 27.723H13.2116Z" fill="#DB4437"/>
<path d="M13.4577 8.07066H13.4545C12.9528 8.08345 12.5522 8.4936 12.5518 8.99573C12.5511 9.49751 12.9499 9.90873 13.4517 9.92294H13.4545C13.9563 9.91015 14.3565 9.5 14.3576 8.99858C14.358 8.49644 13.9588 8.08522 13.4574 8.07066H13.4577Z" fill="#DB4437"/>
<path d="M42.7045 4.17436H5.20455C3.13459 4.17649 1.45668 5.8544 1.45455 7.92436V13.7305H46.4545V7.92436C46.4524 5.8544 44.7745 4.17649 42.7045 4.17436ZM5.72017 11.4904H5.71236C4.32067 11.4883 3.19425 10.3587 3.19531 8.96698C3.19638 7.57529 4.32457 6.4478 5.71626 6.4478C7.10831 6.4478 8.23686 7.57529 8.23757 8.96698C8.23899 10.3587 7.11222 11.4883 5.72017 11.4904ZM15.9719 9.00497C15.9663 10.3917 14.8409 11.5131 13.4545 11.5146H13.4467C12.0728 11.4901 10.9723 10.3679 10.9748 8.99361C10.9766 7.61967 12.0803 6.50107 13.4542 6.48083H13.4627C14.8523 6.48651 15.9748 7.61612 15.9719 9.00568V9.00497ZM23.7063 9.02948C23.7021 10.4162 22.5767 11.5384 21.1896 11.5387H21.1818C19.7979 11.5277 18.6829 10.4016 18.6847 9.0174C18.6868 7.63352 19.8061 6.51101 21.19 6.50426H21.1974C22.5874 6.50994 23.7099 7.63956 23.7067 9.02948H23.7063Z" fill="#DB4437"/>
<path d="M5.72337 8.04688H5.72018C5.21698 8.05682 4.81393 8.46768 4.81322 8.97124C4.81215 9.47514 5.21378 9.88707 5.71769 9.89915H5.72018C6.22408 9.88849 6.62678 9.47798 6.62784 8.97408C6.62855 8.47053 6.22692 8.05859 5.72337 8.04688Z" fill="#DB4437"/>
</svg>
